<svg xmlns="http://www.w3.org/2000/svg" width="1920" height="269.02" viewBox="0 0 1920 269.02">
  <path id="back-mountains" d="M1920,269.02V76.989s-67.68-11.39-72.016-9.207-62.908-10.9-66.163-10.9-37.959,10.9-37.959,10.9l-65.22-10.9-86.324-9.97-35.347,10.329L1421.432,3.412l-77.007,16.9L1254.4,5.523,1174.976,0,1128.1,22.163l-23.383,23.229-98.411-3.781L947.621,66.536l-66.04-10.75s-53.154,27.258-56.408,27.258-68.33,6.544-68.33,6.544L676.584,67.782s-54.236,6.542-70.5,8.54-47.727-7.451-53.066-8.54-65.156-7.635-65.156-7.635-58.721-4.847-62.906-8.118-47.786-12.374-47.786-12.374l-49.814-7.786-58.561,3.2-32.32,25.28-43.757-7.067H154.748l-55.77,30.6-46.06-16.1L0,76.989V269.02Z" fill="#f6d08a"/>
</svg>
