<svg xmlns="http://www.w3.org/2000/svg" width="1922.96" height="870.607" viewBox="0 0 1922.96 870.607">
  <path id="close-stars" d="M1642.784,34.153v-.789m-41.246,86.754c-.249.262-.5.525-.749.789m-99.738-58.362h-.75m30,80.444V142.2m51.876,84.412c-.064.385.7.357.612-.023M1482.3,199.773v.789m50.244,129.34.75-.789m215.974-112.778v-.789m139.483,19.717.75-.789m-41.995-62.3v.789m33.746-102.527v-.789M1903,47.561q.375-.789.75-1.577M1922.5,77.53v-.789m-107.237-14.2h-.749m21.347,200.2v-1.4m-50.484,135.526v-1.4m-45.17,247.3h-1.329M1631.268,679.1h1.329m-42.513-51.7h2.657m256.405,0v-1.4m7.971,20.958v1.4m-22.585,143.909-1.329-1.4m70.412,20.958v1.4m-652.3-180.236h-1.329m138.167-227.74v-1.4m87.682,33.532H1474.5M1304.452,93.683l-1.329,1.4M1251.311,55.96v-1.4m-46.5,160.675h-1.329m-29.227,71.256h1.328m-170.05-163.47h3.985m107.61-8.383H1115.8M796.956,211.046l1.329-1.4M719.9,121.627l1.329,1.4M547.194,364.735v-1.4m-54.469,15.37H491.4M568.451,431.8h1.328M506.01,489.084v-1.4m57.127,201.194h0m50.484-22.355h0m57.126-89.42h0m-108.939,299h1.329M479.44,723.81h1.329m-130.2-32.135v-1.4M98.154,877.5h1.329M49,772.711v-1.4M2.5,806.244v1.4m77.054-148.1-1.328-1.4M49,592.476H47.669M242.962,406.651h2.657m118.239-6.986,1.329-1.4m27.9,67.064,1.329,1.4M144.652,360.544h1.329M191.15,331.2h1.329M72.912,280.9h1.329m377.3-22.355h0m-83.7-166.264h1.329m107.61-48.9v1.4M310.717,26.619l1.329,1.4M207.093,14.044v-1.4M34.385,78.315H33.056m46.5-67.065,1.329-1.4" transform="translate(-1.02 -8.373)" fill="none" stroke="#fff" stroke-linecap="round" stroke-linejoin="round" stroke-miterlimit="10" stroke-width="2.96"/>
</svg>
