<svg xmlns="http://www.w3.org/2000/svg" xmlns:xlink="http://www.w3.org/1999/xlink" width="1920" height="226.185" viewBox="0 0 1920 226.185">
  <defs>
    <linearGradient id="linear-gradient" x1="-0.002" y1="3.266" x2="-0.002" y2="-6.732" gradientUnits="objectBoundingBox">
      <stop offset="0" stop-color="#faf4a5"/>
      <stop offset="1" stop-color="#f0b373"/>
    </linearGradient>
    <linearGradient id="linear-gradient-2" x1="-0.002" y1="3.266" x2="-0.002" y2="-6.732" xlink:href="#linear-gradient"/>
    <linearGradient id="linear-gradient-4" x1="-0.002" y1="3.266" x2="-0.002" y2="-6.732" xlink:href="#linear-gradient"/>
    <linearGradient id="linear-gradient-5" x1="-0.002" y1="3.266" x2="-0.002" y2="-6.732" xlink:href="#linear-gradient"/>
  </defs>
  <g id="clouds" transform="translate(0 0)" opacity="0.5">
    <path id="Path_63" data-name="Path 63" d="M1055.058,573.638c-15.811-4.645-36.557,6.2-62.894,2.4s-16.905,1.665-81.381-2.8-68.3,3.962-94.626-.826-32.29.608-61.507-6.33-58.819,6.885-110.033-.6c-22.484-3.287-46.685-4.934-68.937-1.478-32.96,5.12-55.448-1.693-76.1-2.7-36.8-1.793-41.485,13.325-88.285,5.34s-47.975,7.423-98.339,1.521c-36.508-4.276-45.723,6.725-97.6-.32-13.5-1.833-54.911-6.894-72.32-1.92-22.4,6.4-44.8.444-51.974,4.271-12.8,6.828-23.469,2.988-39.254,3.84a26.843,26.843,0,0,0-3.182.326,115.258,115.258,0,0,0,14.512,2.675c26.453,3.413,17.5-.338,32.858.088s11.942,2.472,30.715,2.9,11.845-5.033,32.325-4.179,15.89,4.179,39.782,4.179,24.538-4.5,47.258.621c17.5,3.944,18.876,2.365,29.542,1.512,9.387-.75,38.9,1.57,37.978,1.688-6.822,1.363-35.132,2.063-42.244,3.432-11.094,2.133-20.48,0-47.786-1.28s-36.695,1.28-46.508,3.84c-6.164,1.607-20.582,6.168-53.76,2.987-27.3-2.617-23.892-1.28-39.68,2.56-11.58,2.816-19.024-1.71-25.2-4.322q-2.309.6-4.584,1.322c-15.733,4.989-40.352-.721-53.837,1.5v10.368c15.693,1.291,17.781-.334,30.715-.334,16.215,0,63.575,5.12,63.575,5.12s38.51,7.983,15.47,8.408c-7.894.146-34.857-7.8-60.25-3.918-27.75,4.238-43.345-3.215-46.63-3.442a20.859,20.859,0,0,1-2.88.17v17.3c8.727-.405,10.5-1.518,19.384,6.218,13.228,11.52,40.962,3.84,79.789,9.386,8.479,1.211,84.014,11.413,116.117,8.521,15.134-1.36,28.75-3.965,38.243-4.9,19.079-1.875,26.81,2.907,65.664.325,58.176-3.867,28.907,3.432,65.7-2.486s33.669,4.264,66.039-.744-4.435,1.9,57.28-2.892c18.684-1.451,31.493,2.738,54.288.027,27.4-3.258,47.477.152,69.015-2.673,30.886-4.045,74.8.742,92.472-2.23s54.346-2.615,61.71-4.129-60.137-1.128-88.035-.328c-5.924.17-38.232,4.568-58.7.551s-39.709,4.871-76.29-.441-61.832,2.477-85.149-1.595-73.316,1.6-90.854-2.035-35.987,1.887-56.44-2.875c-18.314-4.265-11.127,6.86-41.755-3.114s-34.081,1.761-58.614-4.218c-23.384-5.7-105.305-1.858,32.537-13.6,15.058-1.283,38.1,2.368,63.126-1.79s27.786,5.142,51.363-.361,15.956,1.623,49.123-2.379,24.233,2.437,62.473-2.133,45.455,1.755,60.171-.734,35.134,4.359,52.814.632,23.259,10.838,72.771,4.206c35.84-4.8,94.92,2.5,122.56-.64s-69.147-3.789-66.158-6.616-24.9-2.028-41-4.313-38.176,1.268-74.809-1.4-68.946-.785-92.393-2.3-45.545,3.085-64.536-1.433-71.9.333-42.47-4.181,79.285-2.925,92.518-4.328,45.418,3.494,68.939,1.293,21.967,2.272,71.876.957,108.466,6.057,126.115,3.747-10.357,4.637,41.108-1.11,48.34-.829,68.42-1.852c16.362-.83,31.136,3.552,63.667-.071,60.96-6.782,42.449,5.424,86.583-.689,22.206-3.072,67.869,1.975,104.923-.675-6.382-.175-81.615-3.651-84.527-4.506Z" transform="translate(0 -426.001)" fill="url(#linear-gradient)"/>
    <path id="Path_64" data-name="Path 64" d="M1864.4,594.939c-1.18.41-1.051.884.047,1.4,14.375,1.884,14.456,2.975,40.617,6.29,6.125.775,10.961,1.287,14.938,1.614V593.878a20.189,20.189,0,0,0-4.082,1.061c-11.947,4.692-41.7-3.415-51.52,0Z" transform="translate(0 -426.001)" fill="url(#linear-gradient-2)"/>
    <path id="Path_65" data-name="Path 65" d="M1920,610.25c-4.95.036-13.153-.7-17.3-.983-7.672,0-17.354-1.088-26.224-1.088-11.093,0-12.8-.427-28.16.428s-21.76-1.708-37.12-1.708-20.48-1.707-46.933-3.84-36.692-1.28-56.32,1.28a76.737,76.737,0,0,1-14.584.365c-3.628,5.4,13.507,1.443,32.695,6.447,19.625,5.12,28.585,0,45.653,6.828s20.052-2.56,34.56,1.706,26.452,0,47.787,5.12,18.345-2.134,46.505,1.706A102.326,102.326,0,0,0,1920,627.547Z" transform="translate(0 -426.001)" fill="url(#linear-gradient)"/>
    <path id="Path_66" data-name="Path 66" d="M797.261,427.867c-30.738-6.454-51.991,6.3-83.789,1.436-32.252-4.936-50.477,4.753-68.141.882-18.173-3.98-40.884,1.771-56.027-.882s-34.206.882-34.206.882c-34.206.886-52.109,8.407-6.678,3.542s25.742,7.518,59.054,3.093,28.77,1.328,43.913-.883,27.256,4.866,39.373,1.328,39.371,3.1,68.14-.445,36.341,3.983,54.513-2.21,43.913-2.474,43.913-2.474c-17.669-8.191-40.882-.241-60.065-4.269Z" transform="translate(0 -426.001)" fill="url(#linear-gradient-4)"/>
    <path id="Path_67" data-name="Path 67" d="M669.6,498.6c22.281-7.387,52.521,5.372,86.16-1.343s36.383,6.044,58.666,2.685,58.884,5.372,79.57,0,60.478,3.359,77.986-4.7,47.744,7.387,84.347-.671,44.561,5.372,68.435-.671,47.742-4.03,47.742-4.03c-9.548-10.073-46.946,3.023-69.228-6.377s-26.256,7.721-50.132-5.037-33.42,9.4-58.885.671-38.2,7.576-60.476,4.889-30.239,7.868-81.163,5.183-28.648,5.372-71.618,1.343-41.377,8.729-71.617,0-31.828,5.373-58.886,2.016-44.991,4.7-44.991,4.7c34.582,0,41.811,8.729,64.09,1.343Z" transform="translate(0 -426.001)" fill="url(#linear-gradient-5)"/>
  </g>
</svg>
