<svg xmlns="http://www.w3.org/2000/svg" width="1765.953" height="799.523" viewBox="0 0 1765.953 799.523">
  <path id="distant-stars" d="M335.761,811.721v.725m37.878-79.67.688-.724m91.6,53.6h.688m-27.546-73.876v.724m-47.641-77.519c.059-.354-.645-.327-.563.021m92.279,24.626V658.9M437,540.12l-.688.724M237.968,644.415v.724M109.874,627.033l-.689.724m38.566,57.217v-.724m-30.99,94.155v.724m-19.972,20.28-.689,1.449M78.883,771.887v.724m98.481,13.037h.689M158.449,601.8v1.282m46.362-124.46V479.9m41.481-227.108h1.22m98.824-33.361h-1.22m39.041,47.475h-2.44m-235.469,0v1.283m-7.32-19.247v-1.283M159.669,115.5l1.22,1.282M96.226,97.539V96.256M695.27,261.776h1.22M569.606,470.921V472.2m-80.524-30.795h1.22M646.468,757.052l1.22-1.283M695.27,791.7v1.283m42.7-147.557h1.22m26.841-65.438h-1.22M920.98,730.107h-3.66m-98.824,7.7h1.22m292.811-88.534-1.22,1.283m71.984,80.835q-.61-.641-1.22-1.283M1341.9,508.131v1.283m50.022-14.115h1.22m-70.763-48.757h-1.22m58.563-52.607v1.283m-52.463-184.766h0M1280.9,230.981h0M1228.432,313.1h0M1328.477,38.517h-1.22m76.863,139.857h-1.22m119.564,29.511v1.283m231.81-171.935h-1.22m46.362,96.233v1.283m42.7-32.078v-1.283M1771.355,237.4l1.22,1.283m26.841,60.306h1.22M1621.288,469.638h-2.44m-108.584,6.415-1.22,1.283m-25.621-61.588-1.22-1.283m229.369,97.515h-1.22m-41.482,26.945h-1.22m109.8,46.192h-1.22m-346.494,20.529h0M1506.6,758.335h-1.22m-98.825,44.909v-1.283m152.507,16.679-1.22-1.283m96.384,12.832v1.283m158.607-60.306h1.22m-42.7,61.589-1.22,1.283" transform="translate(-77.524 -35.874)" fill="none" stroke="#fff" stroke-linecap="round" stroke-linejoin="round" stroke-miterlimit="10" stroke-width="2.718" opacity="0.4"/>
</svg>
