<svg xmlns="http://www.w3.org/2000/svg" width="1154.535" height="1154.54" viewBox="0 0 1154.535 1154.54">
  <g id="large-planet" transform="translate(0 -0.663)">
    <path id="Path_6" data-name="Path 6" d="M1154.337,577.93c0,318.815-258.407,577.266-577.169,577.266S0,896.746,0,577.93,258.407.663,577.168.663s577.169,258.451,577.169,577.267Z" fill="#0167b0"/>
    <path id="Path_7" data-name="Path 7" d="M1147.673,666.125a581.3,581.3,0,0,1-30.3,115.451c-9.54,25.376-17.692,21.9-40.512,34.513a236.154,236.154,0,0,0-46.413,33.511c-25.77,24.049-46.851,53.566-69.382,80.559-24.567,29.432-54.576,48.925-89.8,63.625-66,27.539-136.9,28.8-203.919,51.614-33.422,11.375-65.185,28.763-89.786,54.473-12.631,13.2-24.494,41.426-36.169,54.275,0,0-.862.244-17.837-1.36-11.027-1.043-22.022-2.361-32.973-4.035,23.365-69.15,77.647-109.9,140.314-140.384,63.878-31.069,136.3-35.863,199.887-67.594,33.143-16.537,64.65-31.905,93.525-55.585,26.1-21.407,43.172-50.866,62.217-78.365,35.892-51.826,92.462-113,152.819-136.478l8.337-4.219Zm-6.409-211.454c-80.539,14.807-140.376,96.785-183.879,159.782C908.164,685.731,852.076,757.483,780.823,808.08c-72.856,51.738-162.2,74.594-240.971,115.542-75.4,39.2-159.281,102.763-193.8,183.369,29.115,14.019,66.005,24.142,66.005,24.142,6.374-2.728,21.553-45.9,26.317-53.388a283.739,283.739,0,0,1,74.417-78.268c70.935-50.637,160.706-60.22,238.8-93.88,41.879-18.05,82.008-35.6,116.6-66.235,32.686-28.948,59.326-64.044,84.009-99.8,42.3-61.286,114.106-165.458,202.186-148.6a575.317,575.317,0,0,0-13.115-136.287ZM948.436,135.837c-49.839-.911-109.588,28.276-148.614,57.414-37.449,27.961-57.031,71.221-82.19,108.325-27.243,40.177-35.77,99.976-72.88,132.283-30.8,26.811-80.882,33.712-120.1,40.541-50.121,8.728-101.42,6.461-139.079,47.113-41.083,44.348-36.462,98.134-53.474,152.115-16.807,53.331-56.619,95.585-95.317,134.234-39.846,39.8-90.516,66.912-145.327,81.842a578.9,578.9,0,0,0,47.631,64.14c11.544,13.5,12.728,13.671,29.034,6.614,12.957-5.609,25.924-11.474,38.512-17.873,43.632-22.182,86.009-54.06,119.254-90.163,58.852-63.911,41.218-163.8,67.8-240.135,14.653-42.08,49.143-56.317,89.668-57.922,46.776-1.854,98.45-6.861,142.716-23.724,84.8-32.3,114.875-115.053,159.19-185.673,25.368-40.425,64.713-78.62,104.3-104.78,40.6-26.832,79.834-34.652,126.066-37.789a573.883,573.883,0,0,0-67.187-66.561Zm-83.8-58.481c-33.285,13.468-73.053,12.932-104.96,32.383-36.421,22.2-60.356,55.944-72.725,95.853-10.761,34.726-24.572,71.159-47.577,101.747-20.2,26.854-60.852,37.008-93.9,46.732-43.016,12.655-90.578,9.223-132.022,28.942-33.258,15.824-68.467,47.611-92.176,76.058-20.734,24.878-21.015,40.446-29.978,69.5-10.933,35.439-20.343,72.491-35.313,104.9-15.212,32.93-40.537,59.482-70.079,82.192-18.969,14.583-38.743,21.813-59.8,32.25C103.412,759.156,83.549,773,63.738,789.667a57.412,57.412,0,0,0-14.962,20.641c4.037,10.124,18.707,38.759,21.669,44,0,0,2.6-2.312,23.033-7.3a289.806,289.806,0,0,0,35.193-10.838c39.668-15.255,75.718-48.859,104.269-79.774,26.179-28.346,41.289-57.725,59.263-91.135,19.8-36.813,23.39-76.471,37.445-116.16,11.3-31.91,29.746-62.217,57.444-82.424,39.01-28.462,81.394-23.447,126.589-28.328,43.972-4.748,88.473-17.835,121.72-48.359C672.415,356,689.078,304.675,713.991,261c46.617-81.73,108.867-141.8,208.246-145.882a575.121,575.121,0,0,0-57.6-37.758ZM422.928,21.7A576.8,576.8,0,0,0,322.589,60.029c-45.8,62.132-84.948,133.856-146.49,180.856-28.86,22.041-58.129,43.554-87.235,65.4-14.132,10.608-29.484,21.223-38.531,36.331-11.472,19.158-18.437,45.311-24.9,66.449C73.509,326.164,162.114,290.492,231.8,230.7c35.536-30.491,68.223-68.7,94.85-107.358,26.1-37.9,57.167-77.382,96.275-101.634Zm677.129,311.638q5.164,11.007,9.864,22.224c-102.682,9.7-160.415,97.606-214.936,173.634-52.343,72.991-119.016,137.473-202.326,173.525-48.371,20.932-81.356,46.79-111.944,90.54-20.959,29.976-46.918,60.453-74.319,88.351C470.9,917.757,429.374,951.3,387.743,980c-37.47,25.835-82.808,53.287-95.114,100.288-16.721-9.463-15.65-9.191-15.65-9.191,5.137-9.07,20.85-36.069,27.436-44.141,15.974-19.575,35.5-35.139,56.8-48.54,39.26-24.7,74.128-58.4,106.7-91.414,35.206-35.688,65.537-76.026,97.048-115.066,13.144-16.286,26.905-32.769,41.867-47.384,17.892-17.477,39.885-25.02,62.126-35.667C759.061,645.752,824.976,580.22,885.33,501.034c52.382-68.726,117.951-166.418,214.727-167.691Z" transform="translate(0 0.004)" fill="#004d92"/>
    <path id="Path_8" data-name="Path 8" d="M1153.516,611.608c-.315,5.324-2.289,27.477-2.289,27.477-1.746,2.206-26.332,7.963-29.687,9.39-16.2,6.885-31.252,16.424-45.206,27.091-28.929,22.115-50.55,49.37-72.633,77.564C954.567,815.86,916,884.935,839.339,918.186c-80.313,34.835-170.248,42.157-248.539,83.849-31.678,16.87-67.381,39.588-90.516,67.552A280.393,280.393,0,0,0,474.11,1107.4c-4.535,7.8-12.622,27.719-17.636,35.041,0,0-1.548.035-19.505-4.47C479.585,1014.349,619.582,962.882,734.6,930.362c57.421-16.236,114.643-35.037,157.9-76.47,24.43-23.4,49.079-47.924,69.078-75.255,18.711-25.572,34.081-53.5,54.857-77.559,35.472-41.043,78.749-87.827,137.081-89.469ZM1028.209,223.821c-109.1.619-193.521,93.02-240.569,182.939-23.247,46.184-44.777,87.642-88.829,118.756-45.834,32.372-97.5,39.421-151.32,48.509-44.484,7.511-87.9,10.246-114.278,53.7-22.06,36.334-25.346,79.3-31.373,120.981C385,865.163,292.14,952.541,194.315,1010.124c5.663,5.024,30.378,25.13,30.378,25.13,7.77.276,26.09-16.049,32.616-20.758,21.15-15.261,40.477-32.841,58.886-51.278,37.413-37.472,64.788-73.013,89.894-120.26,13.065-24.587,17.667-51.913,22.821-78.645,7.921-41.093,5.334-93.758,36.006-125.467,21.556-22.285,47.579-21.824,75.277-28.425,34.181-8.147,69.781-12.357,103.7-20.168,44.211-10.182,90.317-33.707,115.445-72.733,20.784-32.284,35.989-66.338,58.243-96.667,56.582-77.113,144.365-149.341,246.521-152.865q-14.418-22.684-30.886-43.963ZM808.655,49.177c-105.111,21-112.908,120.695-178.447,185.551-34.291,33.934-76.517,58.18-122.612,72.086C456.932,322.1,406.68,329.693,362.012,360.477c-42.521,29.3-74.7,54.028-94.025,104.072-14.28,36.98-22.188,76.8-39.84,112.294-21.38,42.984-55.209,77.591-93.126,106.376-19.232,14.6-39.526,27.736-60.087,40.369-11.038,6.782-48.39,27.8-48.39,27.8s.792,3.913,8.7,25.453c26.676-15.524,54.246-29.548,81.129-44.651,22.866-12.846,35.984-28.392,53.961-47.4,23.883-25.256,50.806-47.284,66.757-77.669,19.572-37.284,29.094-74.371,39.144-114.272,11.926-47.348,54.6-78.6,91.279-106.522,84.6-64.409,213.829-29.88,279.56-126.109,29.243-42.812,34.755-91.971,70.981-130.3,16.359-17.308,32.6-35.372,54.168-46.38C794.71,72.062,818.673,71.109,841.9,64.98q-16.367-8.429-33.245-15.8ZM578.549.724a575.167,575.167,0,0,0-79.557,5.287C435.14,27.93,387.26,83.2,346.374,134.542,305.621,185.718,264.412,236.353,208,271.718,157.85,303.155,114.01,329.929,73.116,375.182c-20.829,23.05-40.684,48.861-54.576,76.8C1.386,486.483.739,530.968.113,569.13,40.893,514.3,67.672,451.162,108.387,396.616c20.884-27.978,46.143-55.587,76.134-73.987,27.409-16.815,58.8-28.947,86.634-44.479,57.415-32.044,101.74-83.921,145.971-132.01,22.443-24.4,41-53.026,65.12-75.609A489.813,489.813,0,0,1,578.549.724Z" transform="translate(0 0)" fill="#3c8cc4"/>
    <path id="Path_9" data-name="Path 9" d="M653.555,5.712C940.924,42.3,1152.518,290.429,1154.337,577.93c0,318.815-258.407,577.266-577.169,577.266-92.709.436-184.063-22.887-266.387-65.06a578.724,578.724,0,0,0,76.387,5.05c318.762,0,577.169-258.451,577.169-577.266.65-212.077-121.682-415.337-310.782-512.207Z" transform="translate(0 0.001)" fill="#004677" opacity="0.59"/>
  </g>
</svg>
