<svg xmlns="http://www.w3.org/2000/svg" width="808" height="800" viewBox="0 0 808 800">
  <g id="Group_1" data-name="Group 1" transform="translate(-664 -927)">
    <rect id="Rectangle_1" data-name="Rectangle 1" width="808" height="800" transform="translate(664 927)" fill="none"/>
    <g id="small-planet" transform="translate(-375.663 792.937)">
      <path id="Path_1" data-name="Path 1" d="M1453.294,769.881c-126.44,0-228.94-102.5-228.94-228.94S1326.854,312,1453.294,312s228.94,102.5,228.94,228.94S1579.735,769.881,1453.294,769.881Z" transform="translate(-15.551 -1.113)" fill="#fdc151"/>
      <path id="Path_2" data-name="Path 2" d="M1681.989,545.276q-.006,9.841-.832,19.657-.362,4.2-.875,8.394a145.065,145.065,0,0,0-21.441,9.223c-78.827,38.466-151.247,91.539-241.834,88.236-46.477-3.182-88.842-21.282-135.319-24.463-11.348-1.1-23.239-1.389-34.994.324a231.337,231.337,0,0,1-12.814-32.906,121.88,121.88,0,0,1,16.681-.078c55.633,4.9,104.763,30.487,161.425,31.66,93.984,2.633,161.335-58.258,244.9-90.6,8.662-3.4,16.93-6.725,25.107-9.445Zm-81.3-174.387c-38.742,19-76.237,44.557-116.845,57.466a140.208,140.208,0,0,1-37.345,7.363c-61.3,2.676-137.891-20.3-194.393,3.7a232.143,232.143,0,0,0-25.252,77.623c68.357-20.891,144.554,11.624,216.342,9.268,43.776-1.576,80.81-19.458,117.175-40.735,28.087-17.467,58.387-41,89.549-57.843A232.273,232.273,0,0,0,1600.685,370.889Z" transform="translate(-15.766 -6.182)" fill="#fee89a"/>
      <path id="Path_3" data-name="Path 3" d="M1620.085,388.03c42.059,42.013,63.971,100.558,64.716,159.453,0,126.441-102.5,228.941-228.94,228.941-83.864.165-161.809-47.239-201.7-120.668,43.584,44.891,101.916,68.7,164.224,69.486,126.441,0,228.94-102.5,228.94-228.94a228.052,228.052,0,0,0-27.244-108.273Z" transform="translate(-18.117 -7.657)" fill="#f3811f" opacity="0.5"/>
      <path id="Path_4" data-name="Path 4" d="M1832.922,299.063c3.954.239,7.558.048,10.125,3.53,8.429,15.12-70.34,76.591-192.293,153.3-.083-.273-2.637-6.593-3.892-9.339,71.169-46.143,110.921-79.089,105.132-89.473-9.713-17.422-140.908,33.481-324.993,136.107-73.327,41.45-146.518,83.578-215.868,131.509-25.01,17.286-51.849,35.075-72.3,57.861-2.76,3.583-5.036,7.154-3.688,11.8,5.129,6.327,19.393,2.636,25.967,1.2,12.558-2.734,24.84-6.78,36.938-11.075q24.446-8.755,48.3-19.087c5.581,8.263,3.025,4.719,7.525,10.736-36.466,17.883-73.7,34.129-111.183,49.74-20.568,8.286-41.429,16.308-62.873,22.058-7.284,1.953-29.941,8.749-35.721.91-3.184-9.542,12.429-23.122,18.313-28.756,12.208-11.692,25.487-22.278,38.9-32.548l2.491-2.184,0,0c66.1-50.409,182.552-124.222,318.754-200.155,96.519-53.07,193.94-105.116,295.267-148.54,31.556-13.523,80.637-35.623,115.11-37.59Z" transform="translate(0)" fill="#f4981d"/>
      <path id="Path_5" data-name="Path 5" d="M1260.817,699.693c5.706,8.447,3.105,4.843,7.648,10.918-7.183,3.462-14.217,6.8-21.382,10.3l-33.758-2.142C1229.4,712.9,1245.29,706.895,1260.817,699.693Z" transform="translate(-14.602 -34.481)" fill="#c25e1c"/>
    </g>
  </g>
</svg>
